<svg aria-hidden="true" style="position: absolute; width: 0; height: 0; overflow: hidden;" version="1.1" xmlns="http://www.w3.org/2000/svg" xmlns:xlink="http://www.w3.org/1999/xlink">
<defs>

<symbol id="icon-facebook" viewBox="0 0 16 32">
<path d="M14.143 15.971h-4.033v14.865h-6.112v-14.865h-2.906v-5.222h2.906v-3.382c0-2.417 1.142-6.204 6.167-6.204l4.527 0.019v5.072h-3.284c-0.538 0-1.297 0.272-1.297 1.425v3.073h4.567l-0.534 5.219z"></path>
</symbol>

<symbol id="icon-github" viewBox="0 0 32 32">
<path d="M16 0c-8.789 0-16 7.211-16 16 0 7.499 5.262 14.312 12.25 16v-5.293c-0.276 0.070-0.593 0.109-0.919 0.109-0.398 0-0.781-0.059-1.143-0.169l0.028 0.007c-0.946-0.278-1.714-0.909-2.285-1.869-0.363-0.613-1.008-1.28-1.68-1.23l-0.165-1.867c1.454-0.125 2.71 0.886 3.456 2.139 0.333 0.558 0.715 0.885 1.205 1.029 0.472 0.141 0.981 0.074 1.573-0.136 0.149-1.186 0.693-1.629 1.104-2.256-4.168-0.621-5.829-2.832-6.488-4.576-0.874-2.318-0.405-5.213 1.139-7.043 0.030-0.035 0.085-0.128 0.064-0.192-0.709-2.141 0.154-3.91 0.186-4.098 0.818 0.24 0.95-0.243 3.552 1.336l0.448 0.27c0.189 0.112 0.128 0.048 0.317 0.032 1.003-0.282 2.157-0.452 3.349-0.469l0.010-0c1.136 0.014 2.272 0.176 3.403 0.483l0.146 0.016c-0.013-0.003 0.040-0.010 0.128-0.062 3.248-1.968 3.131-1.325 4.003-1.608 0.032 0.189 0.882 1.987 0.182 4.099-0.096 0.291 2.816 2.957 1.202 7.235-0.659 1.744-2.32 3.957-6.486 4.578 0.534 0.816 1.176 1.248 1.173 2.928v6.606c6.986-1.688 12.25-8.501 12.25-16 0-8.789-7.211-16-16-16z"></path>
</symbol>

<symbol id="icon-greater" viewBox="0 0 32 32" fill="none">
<path stroke-linejoin="round" stroke-linecap="round" stroke-miterlimit="4" stroke-width="5.3333" d="M10.667 5.333l13.2 10.667-13.2 10.667"></path>
</symbol>

<symbol id="icon-telegram" viewBox="0 0 44 32">
<path d="M17.346 21.048l-0.676 8.86c0.966 0 1.384-0.388 1.886-0.852l4.528-4.040 9.38 6.414c1.72 0.894 2.932 0.422 3.396-1.478l6.16-26.932c0.546-2.372-0.92-3.3-2.596-2.72l-36.194 12.934c-2.47 0.896-2.432 2.18-0.42 2.766l9.254 2.686 21.494-12.552c1.010-0.626 1.93-0.28 1.174 0.346l-17.386 14.57z"></path>
</symbol>

<symbol id="franchise-modal-close-icon" viewBox="0 0 32 32">
<path d="M17.253 16l7.37-7.37c0.13-0.154 0.209-0.354 0.209-0.573 0-0.491-0.398-0.89-0.89-0.89-0.219 0-0.42 0.079-0.575 0.211l0.001-0.001-7.368 7.37-7.37-7.378c-0.159-0.147-0.372-0.237-0.606-0.237-0.493 0-0.893 0.4-0.893 0.893 0 0.234 0.090 0.447 0.237 0.606l-0.001-0.001 7.378 7.37-7.376 7.368c-0.194 0.164-0.316 0.408-0.316 0.68 0 0.491 0.398 0.89 0.89 0.89 0.272 0 0.515-0.122 0.678-0.314l0.001-0.001 7.376-7.37 7.37 7.37c0.155 0.133 0.357 0.214 0.579 0.214 0.491 0 0.89-0.398 0.89-0.89 0-0.222-0.081-0.424-0.215-0.58l0.001 0.001-7.37-7.368z"></path>
</symbol>

<symbol id="icon-close-line-header-modal" viewBox="0 0 30 32">
    <path d="M16.239 15.371l6.935-7.007c0.137-0.162 0.209-0.37 0.201-0.582s-0.095-0.415-0.245-0.565c-0.149-0.151-0.349-0.239-0.559-0.247s-0.416 0.064-0.577 0.203l-6.935 7.007-6.935-7.016c-0.158-0.159-0.371-0.249-0.594-0.249s-0.436 0.089-0.594 0.249c-0.158 0.159-0.246 0.375-0.246 0.6s0.088 0.441 0.246 0.6l6.944 7.007-6.944 7.007c-0.088 0.076-0.159 0.169-0.209 0.274s-0.078 0.219-0.083 0.336c-0.004 0.116 0.015 0.232 0.057 0.341s0.106 0.207 0.187 0.289c0.082 0.082 0.179 0.147 0.286 0.189s0.222 0.062 0.337 0.058c0.115-0.005 0.228-0.033 0.332-0.084s0.196-0.123 0.271-0.211l6.944-7.007 6.935 7.007c0.16 0.138 0.366 0.211 0.577 0.203s0.41-0.096 0.559-0.247c0.149-0.15 0.236-0.352 0.245-0.565s-0.064-0.421-0.201-0.582l-6.935-7.007z"></path>
</symbol>

<symbol id="icon-close-menu" viewBox="0 0 32 32">
<path fill="#fcfcfc" style="fill: #fcfcfc" d="M23.884 6.706l-7.884 7.884-7.884-7.884c-0.177-0.162-0.414-0.262-0.674-0.262-0.551 0-0.998 0.447-0.998 0.998 0 0.26 0.099 0.497 0.262 0.674l-0.001-0.001 7.88 7.884-7.882 7.882c-0.181 0.181-0.293 0.43-0.293 0.706 0 0.551 0.447 0.998 0.998 0.998 0.275 0 0.524-0.111 0.705-0.292v0l7.886-7.882 7.884 7.884c0.177 0.162 0.414 0.262 0.674 0.262 0.551 0 0.998-0.447 0.998-0.998 0-0.26-0.099-0.497-0.262-0.674l0.001 0.001-7.884-7.884 7.884-7.886c0.181-0.181 0.293-0.43 0.293-0.706 0-0.551-0.447-0.998-0.998-0.998-0.275 0-0.524 0.111-0.705 0.292v0 0.002z"></path>
</symbol>
<symbol id="icon-open-menu" viewBox="0 0 32 32">
<path fill="#fff" stroke="#fff" style="stroke:  #fff" stroke-linejoin="miter" stroke-linecap="round" stroke-miterlimit="4" stroke-width="2" d="M6 10h20M6 16h20M6 22h20"></path>
</symbol>
<symbol id="icon-arrow-right" viewBox="0 0 22 32">
<path d="M2.864 0.019c-0.872 0.094-1.628 0.525-2.146 1.159l-0.005 0.006c-0.445 0.545-0.715 1.249-0.715 2.016 0 1.001 0.46 1.895 1.18 2.482l0.006 0.005 12.768 10.314-12.765 10.314c-0.726 0.591-1.186 1.485-1.186 2.487 0 0.765 0.269 1.468 0.717 2.018l-0.005-0.006c0.591 0.726 1.485 1.186 2.487 1.186 0.765 0 1.468-0.269 2.018-0.717l-0.006 0.005 15.83-12.8c0.726-0.591 1.186-1.485 1.186-2.486s-0.46-1.895-1.18-2.482l-0.006-0.005-15.83-12.8c-0.545-0.444-1.247-0.712-2.013-0.712-0.118 0-0.235 0.006-0.35 0.019l0.014-0.001z"></path>
</symbol>
<symbol id="icon-arrowtoright" viewBox="0 0 82 32">
<path fill="#fcfcfc" style="fill: var(--color1, #fcfcfc)" d="M81.414 17.414c0.362-0.362 0.586-0.862 0.586-1.414s-0.224-1.052-0.586-1.414l-12.728-12.728c-0.364-0.377-0.874-0.611-1.439-0.611-1.105 0-2 0.895-2 2 0 0.565 0.234 1.074 0.61 1.438l0.001 0.001 11.314 11.314-11.314 11.314c-0.347 0.359-0.561 0.849-0.561 1.389 0 1.105 0.895 2 2 2 0.54 0 1.030-0.214 1.39-0.562l-0.001 0.001 12.728-12.728zM0 18h80v-4h-80v4z"></path>
</symbol>

<symbol id="icon-Frame-btn" viewBox="0 0 32 32">
<path stroke-linejoin="round" stroke-linecap="round" stroke-miterlimit="4" stroke-width="5.3333" d="M10.667 5.333l13.195 10.667-13.195 10.667"></path>
</symbol>
<symbol id="icon-modal-close" viewBox="0 0 32 32">
<path d="M17.254 16l7.368-7.368c0.127-0.153 0.204-0.351 0.204-0.568 0-0.492-0.398-0.89-0.89-0.89-0.216 0-0.414 0.077-0.568 0.205l0.001-0.001-7.37 7.368-7.368-7.378c-0.162-0.161-0.385-0.261-0.631-0.261-0.493 0-0.893 0.4-0.893 0.893 0 0.247 0.1 0.47 0.262 0.632l7.378 7.368-7.38 7.368c-0.194 0.164-0.317 0.408-0.317 0.681 0 0.492 0.398 0.89 0.89 0.89 0.273 0 0.517-0.123 0.68-0.316l0.001-0.001 7.38-7.368 7.368 7.368c0.153 0.127 0.351 0.203 0.566 0.203 0.492 0 0.89-0.398 0.89-0.89 0-0.216-0.077-0.415-0.206-0.569l0.001 0.001-7.368-7.368z"></path>
</symbol>



</defs>
</svg>



